# xmcd CD database file
#
# Track frame offsets:
#	150
#	32036
#	65386
#	102776
#	125323
#	143475
#	174936
#	202978
#
# Disc length: 2905 seconds
#
# Revision: 1
# Processed by: cddbd v1.5.2PL0 Copyright (c) Steve Scherf et al.
# Submitted via: CDex 1.51
#
DISCID=5f0b5708
DTITLE=Lyle Mays - Lyle Mays
DYEAR=1986
DGENRE=Jazz
TTITLE0=Highland aire
TTITLE1=Teiko
TTITLE2=Slink
TTITLE3=Mirror of the heart
TTITLE4=Northen light
TTITLE5=Invocation
TTITLE6=Ascent
TTITLE7=Close to home
EXTD=YEAR: 1986
EXTT0=
EXTT1=
EXTT2=
EXTT3=
EXTT4=
EXTT5=
EXTT6=
EXTT7=
PLAYORDER=
